<svg width="151" height="81" viewBox="0 0 151 81" fill="none" xmlns="http://www.w3.org/2000/svg">
<path d="M150.4 69.9265H0V80.5H150.4V69.9265Z" fill="#E8262A"/>
<path d="M98.1413 12.586C97.7228 12.586 97.3323 12.5098 96.9699 12.3551C96.6075 12.2004 96.2919 11.9903 96.0254 11.7224C95.7588 11.4568 95.5484 11.1451 95.3941 10.7895C95.2398 10.4339 95.1626 10.0552 95.1626 9.65341V9.63724C95.1626 9.23545 95.2398 8.85676 95.3941 8.50115C95.5484 8.14554 95.7588 7.83381 96.03 7.56364C96.2989 7.29578 96.6169 7.08103 96.9816 6.92401C97.3464 6.76699 97.7392 6.68848 98.1577 6.68848C98.5762 6.68848 98.9667 6.76468 99.3291 6.9217C99.6915 7.07641 100.007 7.28654 100.274 7.55209C100.54 7.81764 100.751 8.12938 100.905 8.48498C101.059 8.84059 101.136 9.21929 101.136 9.62108V9.63724C101.136 10.039 101.059 10.4177 100.905 10.7733C100.751 11.1289 100.54 11.4407 100.269 11.7108C100 11.9787 99.6821 12.1935 99.3174 12.3505C98.9526 12.5075 98.5598 12.586 98.1413 12.586ZM98.1413 12.3574C98.5318 12.3574 98.8942 12.2858 99.2309 12.1427C99.5652 11.9995 99.8551 11.8032 100.101 11.5561C100.346 11.3091 100.538 11.0204 100.678 10.6925C100.818 10.3646 100.889 10.0113 100.889 9.63724V9.62108C100.889 9.247 100.821 8.89601 100.683 8.5658C100.545 8.23791 100.355 7.95157 100.11 7.70681C99.8645 7.46204 99.5769 7.27038 99.2449 7.12952C98.9129 6.98866 98.5505 6.91708 98.16 6.91708C97.7696 6.91708 97.4072 6.98866 97.0705 7.13183C96.7361 7.275 96.4439 7.47127 96.2007 7.71835C95.9552 7.96543 95.7635 8.25407 95.6232 8.58197C95.4829 8.90986 95.4128 9.26085 95.4128 9.63724V9.65341C95.4128 10.0275 95.4806 10.3785 95.6185 10.7087C95.7565 11.0389 95.9459 11.3229 96.1914 11.5677C96.4369 11.8124 96.7244 12.0041 97.0564 12.145C97.3885 12.2858 97.7509 12.3574 98.1413 12.3574ZM97.0027 8.06472H98.3541C98.5411 8.06472 98.7118 8.09243 98.8661 8.14554C99.0204 8.20096 99.1444 8.27254 99.2379 8.36491C99.3034 8.42957 99.3595 8.51038 99.4039 8.60506C99.4483 8.69973 99.4694 8.80364 99.4694 8.9191V8.93527C99.4694 9.18003 99.3945 9.37169 99.2426 9.51255C99.0906 9.65341 98.8918 9.74577 98.644 9.78965L99.6494 11.0435H99.1888L98.2325 9.84737H97.3581V11.0435H97.0027V8.06241V8.06472ZM98.298 9.52179C98.5294 9.52179 98.7188 9.47329 98.8708 9.37862C99.0228 9.28395 99.0976 9.14078 99.0976 8.95143V8.93527C99.0976 8.77132 99.0298 8.64201 98.8965 8.54502C98.7609 8.44804 98.5762 8.39955 98.3401 8.39955H97.3581V9.5241H98.298V9.52179Z" fill="#F47721"/>
<mask id="mask0_232_411" style="mask-type:luminance" maskUnits="userSpaceOnUse" x="46" y="0" width="61" height="42">
<path d="M51.6017 3.29174C49.6961 4.20154 47.9285 5.30531 46.3036 6.57534C46.1843 7.59828 46.1235 8.63739 46.1235 9.69036C46.1235 12.5652 46.5771 15.3362 47.4188 17.9409C50.47 14.625 54.1806 12.0364 58.4757 10.4339C76.4065 3.74203 97.6831 16.7055 106 39.3858C106.278 40.1479 106.54 40.9076 106.783 41.6719C106.75 41.4964 106.717 41.3232 106.682 41.15C105.836 36.9104 104.447 32.6339 102.483 28.4521C94.3747 11.1567 78.8661 0.5 64.0894 0.5C59.799 0.5 55.5718 1.39825 51.604 3.29174" fill="white"/>
</mask>
<g mask="url(#mask0_232_411)">
<path d="M106.783 0.5H46.1235V41.6696H106.783V0.5Z" fill="url(#paint0_linear_232_411)"/>
</g>
<mask id="mask1_232_411" style="mask-type:luminance" maskUnits="userSpaceOnUse" x="54" y="20" width="54" height="34">
<path d="M62.6514 22.6423C59.4062 24.1917 56.6542 26.4316 54.4401 29.1795C56.1609 30.8536 58.1039 32.3153 60.2198 33.5229C62.4971 31.3085 65.1766 29.5628 68.2184 28.4267C82.7426 23.0071 99.9767 33.5068 106.713 51.8783C106.937 52.4948 107.15 53.1113 107.346 53.7279C107.33 53.6378 107.314 53.5478 107.295 53.4554C106.612 49.9709 105.478 46.4587 103.865 43.0204C97.2973 29.0132 84.7347 20.3817 72.7637 20.3817C69.2893 20.3817 65.864 21.109 62.6491 22.6423" fill="white"/>
</mask>
<g mask="url(#mask1_232_411)">
<path d="M107.346 20.3817H54.4401V53.7279H107.346V20.3817Z" fill="url(#paint1_linear_232_411)"/>
</g>
<mask id="mask2_232_411" style="mask-type:luminance" maskUnits="userSpaceOnUse" x="48" y="10" width="60" height="38">
<path d="M57.3744 13.3157C53.8228 15.0106 50.8067 17.449 48.3657 20.4371C49.4787 22.9863 50.9774 25.3394 52.7894 27.4291C55.6793 23.9954 59.3033 21.3307 63.561 19.742C79.6985 13.7198 98.8474 25.3855 106.332 45.7983C106.58 46.4749 106.813 47.1538 107.028 47.8326C107.031 47.8396 107.033 47.8465 107.035 47.8557C107.007 47.7079 106.979 47.5602 106.951 47.4147C106.189 43.5884 104.938 39.7322 103.168 35.9568C95.871 20.3932 81.9127 10.8033 68.6113 10.8033C64.7511 10.8033 60.9447 11.6115 57.372 13.3157" fill="white"/>
</mask>
<g mask="url(#mask2_232_411)">
<path d="M107.038 10.8033H48.3657V47.8557H107.038V10.8033Z" fill="url(#paint2_linear_232_411)"/>
</g>
<path d="M14.8094 66.0402C12.6911 66.0402 10.7248 65.6269 8.91045 64.8025C7.09609 63.9781 5.52723 62.8513 4.20854 61.4219C2.88752 59.9926 1.85643 58.3069 1.11525 56.3626C0.374076 54.4183 0.00231934 52.3424 0.00231934 50.1326V50.0448C0.00231934 47.835 0.374076 45.766 1.11525 43.8379C1.85643 41.9097 2.88986 40.2148 4.20854 38.7555C5.52723 37.2961 7.11012 36.1484 8.95253 35.3079C10.7949 34.4674 12.8291 34.0494 15.0573 34.0494C16.4321 34.0494 17.6689 34.1672 18.7702 34.4027C19.8691 34.6383 20.8745 34.9639 21.7816 35.3749C22.6888 35.7882 23.5282 36.287 24.2974 36.8781C25.0666 37.467 25.7821 38.1158 26.4438 38.8224L22.4012 43.8148C21.2743 42.7249 20.1263 41.8705 18.9572 41.2516C17.7882 40.6328 16.4742 40.3234 15.0175 40.3234C13.8064 40.3234 12.6865 40.5751 11.6554 41.0761C10.6243 41.5772 9.73813 42.2677 8.99462 43.1521C8.2511 44.0365 7.67359 45.0594 7.26209 46.2232C6.85059 47.387 6.6425 48.6316 6.6425 49.9571V50.0448C6.6425 51.3703 6.84825 52.6218 7.26209 53.7995C7.67359 54.9794 8.24643 56.0093 8.97357 56.8937C9.70072 57.7781 10.5822 58.4778 11.6133 58.9927C12.6444 59.5077 13.7783 59.7663 15.0175 59.7663C16.6682 59.7663 18.0641 59.4338 19.2051 58.771C20.346 58.1083 21.48 57.2332 22.6093 56.1432L26.6519 60.5191C25.9084 61.3734 25.1391 62.1378 24.3418 62.8166C23.5446 63.4955 22.6701 64.0751 21.7232 64.5624C20.7739 65.0496 19.7358 65.4167 18.6088 65.6661C17.4819 65.9155 16.217 66.0425 14.8141 66.0425" fill="#E8262A"/>
<path d="M27.8022 34.5805H41.0031C44.6599 34.5805 47.4656 35.6265 49.4179 37.7186C51.0686 39.4851 51.8939 41.845 51.8939 44.7892V44.8769C51.8939 47.38 51.3234 49.4213 50.1824 50.9961C49.0415 52.571 47.5498 53.7279 45.7073 54.4645L52.7614 65.5114H45.3356L39.1467 55.6144H34.1548V65.5114H27.8022V34.5805ZM40.5893 49.6476C42.1558 49.6476 43.3599 49.2481 44.1993 48.4492C45.0386 47.6502 45.4572 46.5834 45.4572 45.251V45.1633C45.4572 43.6831 45.0176 42.5724 44.1361 41.8312C43.257 41.0923 42.0319 40.7205 40.4653 40.7205H34.1548V49.6453H40.5893V49.6476Z" fill="#E8262A"/>
<path d="M67.7345 66.0425C65.5063 66.0425 63.4581 65.6223 61.5876 64.7817C59.7171 63.9435 58.1015 62.8097 56.7408 61.3804C55.38 59.9533 54.3208 58.2723 53.5633 56.3442C52.8058 54.416 52.4293 52.3447 52.4293 50.1372V50.0471C52.4293 47.8373 52.8151 45.7683 53.5843 43.8402C54.3536 41.9097 55.4197 40.2171 56.7805 38.7578C58.1413 37.2984 59.7639 36.1508 61.6484 35.3102C63.5306 34.4697 65.5881 34.0518 67.8163 34.0518C70.0445 34.0518 72.0927 34.472 73.9631 35.3102C75.8336 36.1508 77.4492 37.2845 78.81 38.7116C80.1708 40.1409 81.2299 41.8197 81.9851 43.7501C82.7403 45.6806 83.1191 47.7495 83.1191 49.9594V50.0471C83.1191 52.257 82.7333 54.3283 81.9641 56.2564C81.1948 58.1868 80.1287 59.8794 78.7679 61.3388C77.4071 62.7959 75.7845 63.9458 73.9 64.784C72.0155 65.6246 69.9603 66.0448 67.7321 66.0448M67.814 59.7686C69.1069 59.7686 70.283 59.5192 71.3421 59.0181C72.4013 58.517 73.3085 57.8243 74.0637 56.9399C74.8189 56.0555 75.4104 55.0326 75.8359 53.8688C76.2638 52.705 76.4766 51.4603 76.4766 50.1349V50.0448C76.4766 48.7194 76.2638 47.4678 75.8359 46.2902C75.4104 45.1125 74.8048 44.0803 74.0216 43.1959C73.2383 42.3115 72.3171 41.6142 71.258 41.0969C70.1988 40.582 69.0227 40.3234 67.7321 40.3234C66.4415 40.3234 65.2982 40.5751 64.225 41.0738C63.1518 41.5749 62.2376 42.2677 61.4824 43.1498C60.7249 44.0341 60.1357 45.0571 59.7078 46.2209C59.2799 47.3847 59.0695 48.6293 59.0695 49.9548V50.0425C59.0695 51.368 59.2823 52.6195 59.7078 53.7995C60.1333 54.9771 60.7389 56.0093 61.5222 56.8937C62.3054 57.7781 63.2336 58.4778 64.3068 58.9927C65.38 59.51 66.5491 59.7663 67.814 59.7663" fill="#E8262A"/>
<path d="M80.1498 34.5805H86.956L92.9368 55.5244L99.4133 34.4928H104.859L111.335 55.5244L117.316 34.5805H123.959L114.099 65.7308H108.572L102.053 45.4935L95.5368 65.7308H90.0095L80.1498 34.5805Z" fill="#E8262A"/>
<path d="M124.742 34.5805H130.599L144.129 53.6239V34.5805H150.4V65.5114H144.997L131.01 45.8468V65.5114H124.742V34.5805Z" fill="#E8262A"/>
<path d="M108.967 75.2329V75.2144C108.967 73.2816 110.491 71.6999 112.574 71.6999C113.814 71.6999 114.562 72.0301 115.277 72.6328L114.323 73.7689C113.793 73.3324 113.32 73.0784 112.523 73.0784C111.422 73.0784 110.547 74.039 110.547 75.1959V75.2144C110.547 76.4567 111.412 77.3711 112.633 77.3711C113.182 77.3711 113.676 77.2349 114.059 76.9624V75.9903H112.535V74.6995H115.523V77.6505C114.814 78.244 113.842 78.7289 112.584 78.7289C110.44 78.7289 108.964 77.2441 108.964 75.2329H108.967Z" fill="white"/>
<path d="M116.979 71.813H120.126C121.001 71.813 121.679 72.0555 122.133 72.5035C122.516 72.8822 122.722 73.4156 122.722 74.0575V74.076C122.722 75.1728 122.121 75.8633 121.246 76.1819L122.927 78.6088H121.158L119.682 76.4336H118.492V78.6088H116.977V71.8107L116.979 71.813ZM120.028 75.1151C120.765 75.1151 121.188 74.7272 121.188 74.1545V74.136C121.188 73.4941 120.737 73.1639 119.998 73.1639H118.494V75.1151H120.028Z" fill="white"/>
<path d="M123.783 75.2329V75.2144C123.783 73.2816 125.326 71.6999 127.452 71.6999C129.577 71.6999 131.099 73.2632 131.099 75.1959V75.2144C131.099 77.1471 129.556 78.7289 127.431 78.7289C125.305 78.7289 123.783 77.1656 123.783 75.2329ZM129.516 75.2329V75.2144C129.516 74.0483 128.651 73.0784 127.431 73.0784C126.21 73.0784 125.366 74.0298 125.366 75.1959V75.2144C125.366 76.3805 126.231 77.3503 127.452 77.3503C128.672 77.3503 129.516 76.399 129.516 75.2329Z" fill="white"/>
<path d="M132.338 75.6993V71.8154H133.853V75.6601C133.853 76.7662 134.414 77.3411 135.338 77.3411C136.262 77.3411 136.823 76.7869 136.823 75.7086V71.8154H138.338V75.6508C138.338 77.7106 137.169 78.7197 135.319 78.7197C133.47 78.7197 132.341 77.699 132.341 75.6993H132.338Z" fill="white"/>
<path d="M139.879 71.813H142.691C144.333 71.813 145.326 72.7736 145.326 74.1637V74.1822C145.326 75.7547 144.087 76.5699 142.544 76.5699H141.394V78.6088H139.879V71.8107V71.813ZM142.593 75.2398C143.351 75.2398 143.793 74.7941 143.793 74.2099V74.1914C143.793 73.5218 143.32 73.1616 142.563 73.1616H141.394V75.2398H142.593Z" fill="white"/>
<defs>
<linearGradient id="paint0_linear_232_411" x1="46.2687" y1="21.2345" x2="106.928" y2="21.2345" gradientUnits="userSpaceOnUse">
<stop stop-color="#F9ED21"/>
<stop offset="0.09" stop-color="#F7D821"/>
<stop offset="0.27" stop-color="#F5B323"/>
<stop offset="0.46" stop-color="#F39624"/>
<stop offset="0.64" stop-color="#F28125"/>
<stop offset="0.83" stop-color="#F17525"/>
<stop offset="1" stop-color="#F17126"/>
</linearGradient>
<linearGradient id="paint1_linear_232_411" x1="54.5709" y1="37.2056" x2="107.477" y2="37.2056" gradientUnits="userSpaceOnUse">
<stop stop-color="#F9ED21"/>
<stop offset="0.09" stop-color="#F7D821"/>
<stop offset="0.27" stop-color="#F5B323"/>
<stop offset="0.46" stop-color="#F39624"/>
<stop offset="0.64" stop-color="#F28125"/>
<stop offset="0.83" stop-color="#F17525"/>
<stop offset="1" stop-color="#F17126"/>
</linearGradient>
<linearGradient id="paint2_linear_232_411" x1="48.4852" y1="29.2864" x2="107.157" y2="29.2864" gradientUnits="userSpaceOnUse">
<stop stop-color="#F9ED21"/>
<stop offset="0.09" stop-color="#F7D821"/>
<stop offset="0.27" stop-color="#F5B323"/>
<stop offset="0.46" stop-color="#F39624"/>
<stop offset="0.64" stop-color="#F28125"/>
<stop offset="0.83" stop-color="#F17525"/>
<stop offset="1" stop-color="#F17126"/>
</linearGradient>
</defs>
</svg>
