<svg width="64" height="64" viewBox="0 0 64 64" fill="none" xmlns="http://www.w3.org/2000/svg">
<path d="M32.0715 0.00633616C36.04 0.00633616 40.0084 -0.00954824 43.9769 0.00898356C53.2401 0.0539894 61.0182 6.06624 63.3691 14.9853C63.7503 16.4308 63.9806 17.9028 63.9806 19.4012C63.9859 27.8438 64.0415 36.2863 63.9647 44.7262C63.88 53.9498 56.56 62.2864 47.4423 63.7054C46.3807 63.8722 45.3138 63.9861 44.2363 63.9861C35.9261 63.9808 27.6159 64.0337 19.3057 63.9622C10.0557 63.8828 1.70582 56.5548 0.289459 47.4027C0.130615 46.3835 0.014129 45.3616 0.0167764 44.3291C0.0220712 35.9977 -0.0361716 27.6637 0.0379556 19.3324C0.12532 10.0241 7.43215 1.70332 16.6319 0.279018C17.8497 0.091053 19.0675 0.00104136 20.2985 0.00368876C24.222 0.00898356 28.1481 0.00368876 32.0715 0.00368876V0.00633616ZM28.9449 31.9631C28.6378 31.8943 28.5293 31.6878 28.381 31.5395C26.3002 29.4666 24.2352 27.3725 22.1385 25.3155C20.7221 23.923 18.9563 24.0421 17.4473 25.5696C16.0786 26.9569 16.0441 28.7624 17.397 30.1232C21.4978 34.2399 25.6065 38.3513 29.7206 42.4548C31.0973 43.8288 32.8975 43.8393 34.2715 42.4706C38.3882 38.3672 42.489 34.2531 46.5978 30.1417C46.9578 29.7817 47.2438 29.3766 47.4132 28.8895C47.9241 27.4122 47.2649 25.8264 45.7321 24.8522C44.4852 24.0606 42.9814 24.2168 41.8828 25.3022C39.794 27.3672 37.7237 29.456 35.6428 31.5289C35.484 31.6851 35.3543 31.8943 35.0631 31.979C35.0631 29.6863 35.0631 27.4519 35.0631 25.2202C35.0631 21.4688 35.0789 17.7201 35.0472 13.9687C35.0339 12.4465 33.8956 11.2313 32.4395 11.0513C30.8643 10.858 29.5009 11.737 29.0535 13.2301C28.9237 13.659 28.9423 14.0984 28.9423 14.5353C28.9423 20.3225 28.9423 26.1124 28.9423 31.9578L28.9449 31.9631ZM31.9391 52.9782C36.4741 52.9782 41.0118 52.9702 45.5468 52.9835C46.8122 52.9861 47.85 52.5572 48.4483 51.4268C49.5179 49.4095 48.7475 46.177 45.4806 46.2035C40.5511 46.2458 35.6217 46.2141 30.6896 46.2141C26.5914 46.2141 22.4959 46.2141 18.3977 46.2141C17.1031 46.2141 16.0494 46.7091 15.5014 47.8899C14.4795 50.0872 15.4511 53.0311 18.53 52.9914C22.9989 52.9358 27.4703 52.9782 31.9391 52.9782Z" fill="#4AE972"/>
</svg>
