<svg width="64" height="64" viewBox="0 0 64 64" fill="none" xmlns="http://www.w3.org/2000/svg">
<path d="M63.6366 25.898C62.9581 23.6576 60.9377 22.0856 58.6089 22.0089C58.4422 22.0022 58.2755 22.0022 58.1088 22.0022C40.6535 22.0022 23.1982 22.0005 5.7412 22.0022C3.00062 22.0022 0.890185 23.5459 0.200042 26.0397C0.0550115 26.5648 0 27.0983 0 27.6434C0.00333403 34.8682 -0.00166701 42.0931 0.00333403 49.3179C0.00500104 52.6603 2.34382 54.9941 5.69785 54.9974C11.3707 55.0057 17.0452 55.0057 22.7181 54.9874C23.1832 54.9857 23.4716 55.1324 23.7666 55.4792C25.9071 57.9997 28.0758 60.4969 30.2196 63.0158C30.543 63.3958 30.9298 63.6859 31.3099 63.9943H32.3084C32.9652 63.8009 33.3886 63.3175 33.8154 62.8174C35.9208 60.3485 38.0463 57.898 40.15 55.4258C40.4151 55.1141 40.6835 54.9891 41.0969 54.9907C46.6664 55.0041 52.2359 55.0007 57.8054 55.0007C60.9744 54.9991 62.6714 53.7955 63.7216 50.7949C63.7499 50.7149 63.7666 50.6382 63.8666 50.6215V26.5015C63.6483 26.3548 63.6966 26.0997 63.6349 25.898H63.6366ZM27.319 43.4C24.9719 43.4117 22.6247 43.4033 20.2792 43.4033C17.8904 43.4033 15.5016 43.4117 13.1144 43.3967C12.2042 43.3917 11.5724 42.8899 11.314 42.0464C11.084 41.2929 11.364 40.4844 12.0242 40.0143C12.3742 39.7642 12.771 39.6559 13.1961 39.6559C17.9087 39.6542 22.623 39.6475 27.3374 39.6592C28.4893 39.6626 29.3194 40.4844 29.3144 41.5463C29.3094 42.6182 28.4926 43.395 27.319 43.4ZM50.6322 43.4C48.2651 43.4117 45.8979 43.4033 43.5307 43.4033C41.1636 43.4033 38.7948 43.4117 36.4276 43.395C35.5141 43.39 34.8423 42.8365 34.6105 41.978C34.4055 41.2212 34.7639 40.3627 35.4641 39.9393C35.8108 39.7292 36.1925 39.6542 36.5943 39.6542C41.2669 39.6559 45.9396 39.6492 50.6122 39.6576C51.8058 39.6592 52.6526 40.4727 52.641 41.5579C52.6293 42.6298 51.8108 43.395 50.6322 43.4ZM50.6739 35.9001C46.9548 35.9118 43.2357 35.9051 39.5149 35.9051H31.91C25.7804 35.9051 19.6508 35.9051 13.5211 35.9034C13.1894 35.9034 12.856 35.9268 12.5326 35.8184C11.7308 35.5534 11.199 34.7965 11.2307 33.9664C11.264 33.1362 11.8441 32.4227 12.676 32.2343C12.956 32.171 13.2511 32.1593 13.5395 32.1593C25.7987 32.156 38.0596 32.156 50.3188 32.156C50.4438 32.156 50.5672 32.1527 50.6922 32.156C51.8358 32.1977 52.6626 33.0145 52.641 34.0781C52.6176 35.1283 51.8141 35.8968 50.6739 35.9001Z" fill="#2E92FF"/>
<path d="M63.8665 8.00423C62.8563 9.20782 61.8511 10.4147 60.8342 11.6133C60.6859 11.7867 60.6375 11.9551 60.6592 12.1784C60.7659 13.3587 60.8493 14.5423 60.9626 15.7225C61.141 17.5946 59.8224 18.5798 58.0837 17.8596C57.0501 17.4312 56.0099 17.0211 54.9914 16.561C54.6163 16.391 54.3129 16.3893 53.9395 16.5527C52.8593 17.0278 51.7657 17.4745 50.6705 17.913C49.1051 18.5398 47.7882 17.5446 47.9382 15.8675C48.0449 14.6656 48.1333 13.462 48.2483 12.2618C48.2766 11.9684 48.2066 11.755 48.0116 11.5333C47.2047 10.6098 46.4096 9.67625 45.6211 8.73605C44.5259 7.42745 45.0393 5.89546 46.6913 5.50205C47.8599 5.22366 49.0235 4.92026 50.197 4.66187C50.5154 4.59186 50.7088 4.44516 50.8672 4.17844C51.3673 3.33993 51.9007 2.52143 52.3825 1.67458C52.7659 1.00111 53.196 0.390982 53.8895 0.00756836H54.888C55.5648 0.277625 56.0132 0.774395 56.37 1.40286C56.9018 2.33972 57.4869 3.24658 58.042 4.17177C58.1987 4.43349 58.3821 4.58686 58.7071 4.6552C59.7407 4.87025 60.7542 5.17531 61.7894 5.37535C62.7346 5.55872 63.4748 5.96548 63.8682 6.88067V8.0059L63.8665 8.00423Z" fill="#FFD522"/>
<path d="M9.85734 0.00585938C10.5325 0.280917 10.9809 0.781021 11.336 1.40949C11.8161 2.25966 12.3729 3.06483 12.843 3.92001C13.1064 4.40011 13.4548 4.63516 13.9849 4.74351C15.0818 4.96523 16.1687 5.23862 17.2539 5.51367C18.8309 5.91376 19.326 7.43907 18.2841 8.69934C17.4889 9.6612 16.6738 10.6064 15.8553 11.5483C15.6786 11.7516 15.5969 11.9417 15.6219 12.2167C15.7369 13.4387 15.8286 14.6639 15.9369 15.8875C16.0803 17.5295 14.7617 18.5381 13.2397 17.9313C12.1045 17.4778 10.9776 17.0061 9.85734 16.5176C9.54394 16.3809 9.28222 16.3893 8.97382 16.521C7.85026 17.0044 6.72502 17.4795 5.58979 17.9329C4.09447 18.5297 2.7842 17.5578 2.89756 15.9425C2.98424 14.7173 3.0876 13.4937 3.20596 12.2717C3.23429 11.9784 3.17595 11.7633 2.98091 11.5399C2.18574 10.6331 1.40725 9.71121 0.627085 8.79102C-0.533157 7.42741 -0.0280514 5.90542 1.71064 5.492C2.85922 5.21861 4.00279 4.91522 5.15636 4.66016C5.47309 4.59015 5.66814 4.44678 5.8265 4.1784C6.37995 3.24987 6.96841 2.34301 7.50185 1.40448C7.85859 0.77602 8.30535 0.275916 8.98549 0.00585938H9.85901L9.85734 0.00585938Z" fill="#FFD522"/>
<path d="M32.4333 0.00585938C33.0934 0.31259 33.5252 0.834365 33.8819 1.4595C34.4053 2.37802 34.9871 3.26487 35.5272 4.17506C35.6873 4.44512 35.8757 4.58515 36.1941 4.65516C37.3876 4.91688 38.5745 5.21194 39.7598 5.51201C41.3285 5.90876 41.8369 7.45408 40.805 8.69267C40.0332 9.61953 39.2547 10.5397 38.4562 11.4432C38.2145 11.7166 38.1295 11.9834 38.1611 12.3418C38.2695 13.5637 38.3728 14.7873 38.4379 16.0142C38.5212 17.6112 37.2376 18.5264 35.7556 17.9329C34.6221 17.4778 33.4935 17.0094 32.3749 16.5193C32.0599 16.3809 31.7998 16.3909 31.4914 16.5226C30.3878 16.9977 29.2793 17.4578 28.1657 17.9079C26.6104 18.5364 25.3368 17.6295 25.4335 15.9508C25.5018 14.7456 25.6002 13.5437 25.7069 12.3418C25.7385 11.9834 25.6519 11.715 25.4118 11.4432C24.615 10.5381 23.8365 9.61786 23.063 8.69267C22.0294 7.45741 22.5479 5.89042 24.1065 5.51367C25.2951 5.22695 26.4804 4.92522 27.6723 4.66183C27.9873 4.59181 28.1791 4.45179 28.3391 4.18006C28.9225 3.19819 29.551 2.24466 30.1128 1.24945C30.4329 0.684334 30.8796 0.302588 31.4331 0.0091934H32.4316L32.4333 0.00585938Z" fill="#FFD522"/>
</svg>
