<svg width="63" height="64" viewBox="0 0 63 64" fill="none" xmlns="http://www.w3.org/2000/svg">
<path d="M62.9646 31.4924V32.8672C62.8035 32.919 62.8479 33.0641 62.8331 33.1776C62.5403 35.4017 62.2525 37.6241 61.9581 39.8482C60.9895 47.1978 60.0044 54.5441 59.0637 61.8971C58.9321 62.9316 58.5144 63.629 57.5556 63.9844H28.2951C28.175 63.7641 27.9399 63.8125 27.7573 63.7658C25.0306 63.0667 23.1689 61.3649 22.2118 58.702C21.993 58.093 21.7562 57.9061 21.1559 57.9545C20.6346 57.9962 19.9455 58.1964 19.6166 57.8694C19.2877 57.5407 19.5163 56.8433 19.5163 56.3077C19.5097 49.1232 19.5179 41.9388 19.4998 34.7543C19.4998 34.2271 19.6331 34.0952 20.1412 34.1119C21.3895 34.152 22.641 34.1069 23.8892 34.1353C24.2922 34.1453 24.4945 34.0218 24.6754 33.6481C26.2459 30.4096 27.8363 27.1794 29.4331 23.9542C29.5861 23.6456 29.6535 23.3452 29.6519 23.0049C29.6453 20.0266 29.6437 17.0484 29.6486 14.0718C29.6502 12.8038 30.4528 11.9996 31.701 12.048C32.4148 12.0747 33.1318 12.1447 33.839 12.2549C39.498 13.1258 44.2887 18.1262 45.0304 23.8942C45.2689 25.7412 45.1587 27.5949 45.1636 29.4452C45.1636 29.9758 45.2623 30.1359 45.8231 30.1326C50.719 30.1059 55.615 30.141 60.5109 30.0992C61.6506 30.0892 62.4861 30.4079 62.963 31.4924H62.9646Z" fill="#F7D0C1"/>
<path d="M1.36997 63.9861C0.315786 63.4839 -0.00326406 62.6363 2.51177e-05 61.4734C0.0312723 51.7745 0.0181156 42.0757 0.0181156 32.3751C0.0181156 30.8184 0.698974 30.1177 2.21035 30.1177C6.03895 30.1177 9.86755 30.1177 13.6978 30.1177C15.094 30.1177 15.8209 30.8385 15.8209 32.2617C15.8259 42.1074 15.8177 51.9514 15.8308 61.7971C15.8308 62.8849 15.3654 63.5857 14.4017 63.9861H1.36997Z" fill="#8080FF"/>
<path d="M13.1733 0C13.7966 0.255277 14.2143 0.730794 14.5942 1.27805C15.6221 2.75633 16.6861 4.20623 17.7189 5.6795C17.9212 5.96815 18.1613 6.135 18.4853 6.24011C20.2549 6.81574 22.0212 7.3997 23.7858 7.99034C25.5373 8.57598 25.9221 9.82066 24.8301 11.3507C23.748 12.8656 22.6691 14.3823 21.5755 15.8889C21.3716 16.1692 21.2762 16.4479 21.2795 16.8016C21.2943 18.7587 21.291 20.7158 21.2844 22.6746C21.2795 24.2296 20.1414 25.0756 18.6827 24.6C16.8753 24.0111 15.0711 23.4088 13.2703 22.7948C12.9052 22.6713 12.5812 22.6663 12.2129 22.7931C10.4318 23.4004 8.62765 23.936 6.86137 24.5834C5.33354 25.144 4.09024 24.0528 4.15602 22.5779C4.24318 20.6658 4.17082 18.747 4.18398 16.8316C4.18727 16.4812 4.10175 16.2009 3.89618 15.9173C2.76634 14.3606 1.64967 12.7939 0.536284 11.2255C-0.437312 9.85737 -0.00478517 8.53093 1.57237 8.0137C3.36004 7.42807 5.14442 6.83242 6.93537 6.25679C7.28402 6.14501 7.53729 5.96481 7.75273 5.65948C8.8102 4.15284 9.90056 2.66957 10.9498 1.15626C11.31 0.63569 11.7277 0.226913 12.3132 0L13.1733 0Z" fill="#FFD522"/>
<path d="M57.5555 63.9863C58.5143 63.6309 58.9321 62.9318 59.0636 61.899C60.0043 54.546 60.9894 47.1997 61.9581 39.8501C62.2508 37.6276 62.5403 35.4036 62.833 33.1795C62.8478 33.066 62.8034 32.9209 62.9646 32.8691C62.9646 43.0752 62.9613 53.2813 62.9761 63.4874C62.9761 63.9145 62.8955 64.008 62.4729 63.9996C60.8348 63.9679 59.1952 63.9863 57.5555 63.9863Z" fill="#FDFDFD"/>
</svg>
