<svg width="64" height="64" viewBox="0 0 64 64" fill="none" xmlns="http://www.w3.org/2000/svg">
<path d="M63.9778 20.7599V22.7592C63.7528 22.9357 63.8215 23.2132 63.769 23.4396C62.7505 27.7616 60.091 30.5086 55.8296 31.7009C54.2008 32.1563 52.5208 31.992 50.8596 32.0041C47.7623 32.027 45.1419 30.898 42.997 28.6791C42.7006 28.3719 42.5767 28.4002 42.2978 28.6898C40.5518 30.5032 38.4406 31.6376 35.9213 31.9084C33.7845 32.1388 31.6356 31.9798 29.4922 31.9987C26.4191 32.027 23.8148 30.8912 21.6862 28.6912C21.3507 28.3449 21.2241 28.4258 20.9425 28.7195C19.4497 30.2729 17.6498 31.2914 15.54 31.7643C13.8923 32.1334 12.2231 32.0054 10.5619 31.996C6.15369 31.9717 2.19142 29.2004 0.675761 25.0576C0.0870118 23.4463 -0.264621 21.7932 0.247335 20.0553C1.24161 16.6696 2.16582 13.2624 3.16279 9.87679C4.49253 5.35406 7.40799 2.30118 11.8431 0.700643C13.8411 -0.0201381 15.924 -0.00262375 18.0082 0.00276527C18.5067 0.00276527 18.6656 0.0930312 18.6616 0.63328C18.632 3.8613 18.6481 7.08797 18.6454 10.316C18.6454 10.735 18.6697 11.1486 18.8071 11.546C19.2153 12.733 20.4413 13.4996 21.6404 13.3231C23.02 13.1196 23.9792 12.0674 23.9859 10.6797C24.0008 7.34799 24.0035 4.01623 23.9792 0.684475C23.9752 0.164436 24.0627 -0.003971 24.6367 7.07608e-05C29.5299 0.0283631 34.4245 0.0243213 39.3177 0.00411252C39.8364 0.00141801 40.0088 0.0849477 40.0034 0.661572C39.9698 3.99333 39.9751 7.32509 39.9913 10.6568C40.0007 12.442 41.5838 13.6693 43.3029 13.2624C44.5289 12.9728 45.3237 11.8896 45.3264 10.4642C45.3332 7.15264 45.3345 3.84244 45.321 0.530889C45.3197 0.145574 45.3857 -0.0174435 45.8195 0.00545977C46.5673 0.0445301 47.3177 0.0108488 48.0681 0.0175851C53.7724 0.0674334 58.896 3.82492 60.611 9.26783C61.2846 11.4059 61.8478 13.5777 62.4864 15.7279C62.9849 17.4052 63.3729 19.1163 63.9805 20.7612L63.9778 20.7599Z" fill="#FF7438"/>
<path d="M11.8675 63.9988C11.5455 63.7414 11.136 63.7805 10.7682 63.6862C6.02987 62.471 2.72505 58.3888 2.67116 53.4686C2.60649 47.5353 2.65365 41.6007 2.6523 35.666C2.6523 35.4114 2.58898 35.115 3.02549 35.3656C6.56338 37.3932 10.43 37.5199 14.3518 37.2895C16.6691 37.1534 18.8463 36.5108 20.8779 35.3898C21.1676 35.2295 21.3993 35.177 21.7227 35.3589C24.11 36.7048 26.6954 37.3366 29.4249 37.342C31.5684 37.3474 33.7132 37.4255 35.8567 37.276C37.1272 37.1871 38.3532 36.8934 39.66 36.4892C39.3259 37.4606 38.9931 38.3619 38.8341 39.313C38.3383 42.2918 38.884 45.0645 40.4711 47.6216C40.7338 48.0446 40.6624 48.1995 40.2717 48.4528C36.1598 51.1244 33.4047 54.7943 32.1949 59.5757C31.8149 61.0779 32.0278 62.5478 32.4859 63.9974H11.8675V63.9988Z" fill="#E9EAEB"/>
<path d="M39.3594 63.9986C39.2947 63.8275 39.1155 63.8585 38.9916 63.8046C37.6874 63.2294 37.0246 61.9427 37.4395 60.5793C39.0347 55.3331 42.5766 52.1428 47.8875 50.9599C54.45 49.4981 61.2388 53.2678 63.5493 59.5594C63.6948 59.9555 63.7312 60.3907 63.9764 60.7504V62.0007C63.5574 62.9734 62.8824 63.6766 61.8518 64H39.358L39.3594 63.9986Z" fill="#00C6C8"/>
<path d="M50.6307 48.0014C46.9675 47.9947 43.9699 44.9755 43.9847 41.3069C43.9995 37.6667 46.9864 34.6825 50.632 34.6663C54.2817 34.6502 57.3238 37.6855 57.3198 41.3393C57.3157 45.0065 54.3019 48.0082 50.6307 48.0014Z" fill="#00C6C8"/>
</svg>
