<?xml version="1.0" encoding="utf-8"?>
<!-- Generator: Adobe Illustrator 26.5.0, SVG Export Plug-In . SVG Version: 6.00 Build 0)  -->
<svg version="1.1" id="Layer_1" xmlns="http://www.w3.org/2000/svg" xmlns:xlink="http://www.w3.org/1999/xlink" x="0px" y="0px"
	 viewBox="0 0 512 512" style="enable-background:new 0 0 512 512;" xml:space="preserve">
<style type="text/css">
	.st0{fill:#0C0526;}
	
		.st1{clip-path:url(#SVGID_00000004521628083647455490000012239934335361691528_);fill:url(#SVGID_00000012463663498831408250000014523471505564438948_);}
</style>
<g>
	<rect x="-38" y="-37.8" class="st0" width="587.4" height="587.4"/>
	<g>
		<defs>
			<path id="SVGID_1_" d="M346.6,176.2l-27,160.3h13.2l27-160.3H346.6z M365.3,176.2l-27,160.3h11.8l27-160.3H365.3z M382.6,176.2
				l-27,160.3h10.5l27-160.3H382.6z M398.5,176.2l-27,160.3h9.2l27-160.3H398.5z M413.2,176.2l-27,160.3h7.9l27-160.3H413.2z
				 M426.5,176.2l-27,160.3h6.5l27-160.3H426.5z M438.5,176.2l-27,160.3h5.2l27-160.3H438.5z M449,176.2l-27,160.3h3.9l27-160.3H449
				z M458.3,176.2l-27,160.3h2.5l27-160.3H458.3z M168.4,209.9h68.9l-4.8,22.2l-7.7,6.7h-62.6L168.4,209.9z M84.9,175.3L50.7,336.4
				h90.9l13.4-63.1h50.7l4.8,63.1h90.9l-6.9-70.1l27.5-27.5l13.6-63.4H84.9z"/>
		</defs>
		<clipPath id="SVGID_00000026154195327496895500000000018791839869363383_">
			<use xlink:href="#SVGID_1_"  style="overflow:visible;"/>
		</clipPath>
		
			<linearGradient id="SVGID_00000096048581763442910320000014651978818155111304_" gradientUnits="userSpaceOnUse" x1="50.8497" y1="129.4207" x2="466.1484" y2="385.7194">
			<stop  offset="0" style="stop-color:#7C1234"/>
			<stop  offset="0.54" style="stop-color:#C13C8F"/>
			<stop  offset="1" style="stop-color:#702B89"/>
		</linearGradient>
		
			<rect x="50.7" y="175.3" style="clip-path:url(#SVGID_00000026154195327496895500000000018791839869363383_);fill:url(#SVGID_00000096048581763442910320000014651978818155111304_);" width="410.1" height="161.1"/>
	</g>
</g>
</svg>
