<svg width="190" height="64" viewBox="0 0 190 64" fill="none" xmlns="http://www.w3.org/2000/svg">
<path d="M174.283 0.000205325H15.3928C14.8136 0.000205325 14.2414 0.000205325 13.6637 0.00336417C13.1802 0.00652301 12.7005 0.0156994 12.2123 0.0234228C11.1518 0.0359031 10.0937 0.129207 9.04732 0.302522C8.00241 0.479611 6.99024 0.813474 6.04503 1.29282C5.10098 1.77622 4.23837 2.40435 3.4885 3.15442C2.73469 3.90238 2.10634 4.76693 1.6276 5.71481C1.14753 6.6608 0.814652 7.67452 0.640457 8.72095C0.464605 9.76606 0.369978 10.8232 0.357424 11.883C0.342767 12.3672 0.341219 12.8531 0.333496 13.3374V49.8445C0.341219 50.3349 0.342767 50.81 0.357424 51.3006C0.369982 52.3603 0.464609 53.4174 0.640457 54.4624C0.814171 55.5095 1.14707 56.5238 1.6276 57.4701C2.10612 58.415 2.73457 59.276 3.4885 60.0198C4.23553 60.7732 5.09869 61.4018 6.04503 61.8815C6.99023 62.3621 8.0023 62.6979 9.04732 62.8778C10.0939 63.0497 11.1518 63.143 12.2123 63.157C12.7005 63.1677 13.1802 63.1739 13.6637 63.1739C14.2414 63.1771 14.8136 63.1771 15.3928 63.1771H174.283C174.85 63.1771 175.427 63.1771 175.995 63.1739C176.476 63.1739 176.97 63.1677 177.451 63.157C178.509 63.1438 179.565 63.0504 180.61 62.8778C181.658 62.6967 182.674 62.3609 183.624 61.8815C184.569 61.4015 185.431 60.7729 186.178 60.0198C186.93 59.2731 187.56 58.4127 188.044 57.4701C188.521 56.5231 188.851 55.5089 189.022 54.4624C189.198 53.4172 189.296 52.3604 189.315 51.3006C189.321 50.81 189.321 50.3349 189.321 49.8445C189.333 49.2707 189.333 48.7001 189.333 48.117V15.0618C189.333 14.4834 189.333 13.9096 189.321 13.3374C189.321 12.8531 189.321 12.3672 189.315 11.8829C189.296 10.8231 189.198 9.76614 189.022 8.72089C188.85 7.67506 188.521 6.66142 188.044 5.71474C187.069 3.81482 185.523 2.26829 183.624 1.29268C182.674 0.814503 181.658 0.480729 180.61 0.30238C179.566 0.128301 178.509 0.0349649 177.451 0.0232017C176.97 0.0154941 176.476 0.00623872 175.995 0.00315884C175.427 0 174.85 0.000205325 174.283 0.000205325Z" fill="#A6A6A6"/>
<path d="M13.6715 61.7957C13.1903 61.7957 12.7207 61.7895 12.2432 61.7788C11.2542 61.7659 10.2674 61.6798 9.29108 61.5212C8.38069 61.3644 7.49876 61.0727 6.67439 60.6558C5.85758 60.2424 5.11258 59.7002 4.46794 59.0502C3.81397 58.4078 3.2695 57.6627 2.85612 56.8445C2.43819 56.021 2.14896 55.1383 1.9985 54.2271C1.83601 53.248 1.7481 52.258 1.73553 51.2657C1.72551 50.9326 1.7124 49.8235 1.7124 49.8235V13.338C1.7124 13.338 1.72636 12.246 1.7356 11.9251C1.74765 10.9343 1.83505 9.94589 1.99705 8.96835C2.14778 8.05468 2.43724 7.16942 2.8554 6.34319C3.26726 5.52555 3.8087 4.77993 4.45873 4.13524C5.10804 3.48442 5.85542 2.9395 6.67362 2.52033C7.49609 2.10476 8.37635 1.81515 9.28491 1.66122C10.2645 1.50101 11.2546 1.41439 12.2471 1.4021L13.6723 1.38281H175.987L177.429 1.40287C178.413 1.41456 179.394 1.5004 180.364 1.65967C181.282 1.81553 182.172 2.10716 183.004 2.52496C184.643 3.3697 185.976 4.70617 186.818 6.34704C187.229 7.16757 187.514 8.04561 187.663 8.95138C187.827 9.93694 187.919 10.9332 187.938 11.9321C187.942 12.3794 187.942 12.8598 187.942 13.338C187.955 13.9303 187.955 14.494 187.955 15.0624V48.1176C187.955 48.6914 187.955 49.2513 187.942 49.8158C187.942 50.3294 187.942 50.7999 187.936 51.2842C187.918 52.2653 187.827 53.2437 187.666 54.2116C187.519 55.1294 187.231 56.019 186.813 56.8492C186.397 57.6586 185.856 58.3972 185.209 59.0378C184.564 59.6914 183.818 60.2367 182.999 60.6528C182.169 61.0729 181.281 61.3657 180.364 61.5212C179.388 61.6806 178.401 61.7667 177.412 61.7788C176.95 61.7895 176.465 61.7957 175.995 61.7957L174.283 61.7988L13.6715 61.7957Z" fill="black"/>
<path d="M39.4542 32.0566C39.4712 30.7383 39.8214 29.4457 40.4721 28.2991C41.1229 27.1525 42.0531 26.1892 43.1762 25.4987C42.4627 24.4797 41.5215 23.6412 40.4272 23.0496C39.3329 22.458 38.1158 22.1297 36.8725 22.0908C34.2203 21.8124 31.649 23.6779 30.2975 23.6779C28.9198 23.6779 26.8389 22.1185 24.5982 22.1646C23.1488 22.2114 21.7362 22.6329 20.4981 23.3879C19.2601 24.143 18.2387 25.2059 17.5335 26.473C14.4789 31.7616 16.7574 39.534 19.6834 43.8089C21.1474 45.9022 22.8584 48.2404 25.0971 48.1575C27.2879 48.0666 28.1061 46.7605 30.7505 46.7605C33.3704 46.7605 34.138 48.1575 36.4222 48.1048C38.773 48.0666 40.2541 46.0022 41.6667 43.8891C42.7185 42.3975 43.5279 40.7491 44.0649 39.0047C42.6992 38.4271 41.5337 37.4602 40.7138 36.2246C39.8939 34.989 39.4558 33.5394 39.4542 32.0566Z" fill="white"/>
<path d="M35.1399 19.2788C36.4216 17.7401 37.0531 15.7624 36.9002 13.7656C34.942 13.9713 33.1331 14.9072 31.8341 16.3868C31.1989 17.1097 30.7125 17.9506 30.4025 18.8616C30.0925 19.7726 29.9652 20.7357 30.0277 21.6959C31.0071 21.706 31.9761 21.4937 32.8616 21.075C33.7472 20.6563 34.5261 20.0422 35.1399 19.2788Z" fill="white"/>
<path d="M67.1464 42.8628H59.6704L57.8751 48.164H54.7085L61.7897 28.5508H65.0796L72.1608 48.164H68.9402L67.1464 42.8628ZM60.4447 40.4165H66.3707L63.4494 31.813H63.3676L60.4447 40.4165Z" fill="white"/>
<path d="M87.4537 41.0216C87.4537 45.4653 85.0754 48.3202 81.4862 48.3202C80.577 48.3678 79.6728 48.1584 78.8771 47.7159C78.0814 47.2735 77.4263 46.6159 76.987 45.8184H76.9191V52.9012H73.9839V33.871H76.825V36.2494H76.879C77.3386 35.4558 78.0047 34.8016 78.8064 34.3565C79.6082 33.9113 80.5156 33.6918 81.4322 33.7214C85.0614 33.7214 87.4537 36.5903 87.4537 41.0216ZM84.4368 41.0216C84.4368 38.1265 82.9407 36.2232 80.6579 36.2232C78.4153 36.2232 76.9068 38.1666 76.9068 41.0216C76.9068 43.9028 78.4153 45.8324 80.6579 45.8324C82.9407 45.8324 84.4368 43.9429 84.4368 41.0216Z" fill="white"/>
<path d="M103.193 41.0216C103.193 45.4653 100.814 48.3202 97.225 48.3202C96.3158 48.3678 95.4115 48.1584 94.6158 47.7159C93.8201 47.2734 93.1651 46.6159 92.7258 45.8184H92.6579V52.9012H89.7227V33.871H92.5638V36.2494H92.6177C93.0773 35.4558 93.7434 34.8016 94.5451 34.3564C95.3469 33.9113 96.2543 33.6918 97.1709 33.7214C100.8 33.7214 103.193 36.5902 103.193 41.0216ZM100.176 41.0216C100.176 38.1265 98.6794 36.2232 96.3967 36.2232C94.154 36.2232 92.6455 38.1666 92.6455 41.0216C92.6455 43.9028 94.154 45.8323 96.3967 45.8323C98.6794 45.8323 100.176 43.9429 100.176 41.0216Z" fill="white"/>
<path d="M113.594 42.7021C113.812 44.6471 115.701 45.9241 118.283 45.9241C120.757 45.9241 122.537 44.647 122.537 42.8933C122.537 41.3709 121.464 40.4594 118.922 39.8347L116.38 39.2224C112.779 38.3525 111.107 36.6681 111.107 33.935C111.107 30.551 114.056 28.2266 118.243 28.2266C122.388 28.2266 125.229 30.551 125.324 33.935H122.361C122.184 31.9777 120.566 30.7962 118.202 30.7962C115.837 30.7962 114.219 31.9916 114.219 33.7314C114.219 35.118 115.253 35.934 117.781 36.5586L119.941 37.0892C123.966 38.0408 125.638 39.6573 125.638 42.5261C125.638 46.1955 122.715 48.4937 118.066 48.4937C113.716 48.4937 110.78 46.2495 110.59 42.702L113.594 42.7021Z" fill="white"/>
<path d="M131.972 30.4844V33.8684H134.691V36.1928H131.972V44.076C131.972 45.3007 132.517 45.8714 133.712 45.8714C134.035 45.8658 134.357 45.8431 134.677 45.8035V48.114C134.14 48.2144 133.594 48.2599 133.047 48.2497C130.152 48.2497 129.023 47.1623 129.023 44.3891V36.1928H126.944V33.8684H129.023V30.4844H131.972Z" fill="white"/>
<path d="M136.266 41.0178C136.266 36.5186 138.916 33.6914 143.048 33.6914C147.194 33.6914 149.832 36.5186 149.832 41.0178C149.832 45.5294 147.208 48.3442 143.048 48.3442C138.89 48.3442 136.266 45.5293 136.266 41.0178ZM146.841 41.0178C146.841 37.9315 145.426 36.1099 143.048 36.1099C140.67 36.1099 139.257 37.9454 139.257 41.0178C139.257 44.1165 140.67 45.9242 143.048 45.9242C145.426 45.9242 146.841 44.1165 146.841 41.0178Z" fill="white"/>
<path d="M152.251 33.8709H155.051V36.3048H155.119C155.308 35.5446 155.754 34.8728 156.38 34.4023C157.006 33.9319 157.776 33.6913 158.558 33.7212C158.897 33.7201 159.234 33.7568 159.564 33.8308V36.5762C159.137 36.4457 158.692 36.3858 158.245 36.3989C157.819 36.3816 157.394 36.4567 156.999 36.6192C156.605 36.7817 156.25 37.0277 155.959 37.3403C155.669 37.6528 155.449 38.0246 155.316 38.4299C155.182 38.8353 155.138 39.2648 155.187 39.6888V48.1705H152.251L152.251 33.8709Z" fill="white"/>
<path d="M173.097 43.9669C172.703 46.5628 170.175 48.3442 166.94 48.3442C162.78 48.3442 160.198 45.5571 160.198 41.0857C160.198 36.6004 162.794 33.6914 166.817 33.6914C170.773 33.6914 173.261 36.4091 173.261 40.7448V41.7505H163.161V41.9278C163.115 42.4541 163.18 42.9843 163.354 43.4831C163.529 43.9819 163.807 44.4381 164.171 44.8211C164.534 45.2042 164.976 45.5055 165.465 45.705C165.954 45.9045 166.48 45.9976 167.008 45.9782C167.702 46.0432 168.398 45.8825 168.993 45.5201C169.588 45.1578 170.05 44.613 170.31 43.9669L173.097 43.9669ZM163.175 39.6991H170.324C170.35 39.2259 170.279 38.7524 170.113 38.3082C169.948 37.8641 169.693 37.4589 169.363 37.1181C169.034 36.7773 168.638 36.5083 168.2 36.3279C167.761 36.1475 167.291 36.0596 166.817 36.0698C166.339 36.0669 165.865 36.1588 165.423 36.34C164.98 36.5212 164.578 36.7883 164.24 37.1257C163.901 37.4631 163.633 37.8642 163.45 38.3059C163.267 38.7476 163.174 39.2211 163.175 39.6991Z" fill="white"/>
<path d="M60.0769 13.788C60.6923 13.7439 61.3098 13.8368 61.8849 14.0602C62.46 14.2836 62.9783 14.6318 63.4025 15.0798C63.8267 15.5278 64.1462 16.0643 64.338 16.6507C64.5297 17.2371 64.5889 17.8587 64.5113 18.4708C64.5113 21.4815 62.8841 23.2122 60.0769 23.2122H56.6729V13.788H60.0769ZM58.1366 21.8794H59.9134C60.3531 21.9057 60.7932 21.8336 61.2015 21.6684C61.6099 21.5031 61.9762 21.2489 62.274 20.9243C62.5717 20.5996 62.7932 20.2126 62.9225 19.7915C63.0518 19.3704 63.0856 18.9258 63.0214 18.49C63.0809 18.0559 63.0437 17.614 62.9125 17.196C62.7812 16.778 62.5591 16.3942 62.262 16.0721C61.965 15.75 61.6004 15.4976 61.1944 15.333C60.7883 15.1683 60.3509 15.0955 59.9134 15.1198H58.1366V21.8794Z" fill="white"/>
<path d="M66.1648 19.6589C66.1201 19.1915 66.1735 18.7199 66.3218 18.2744C66.47 17.8289 66.7097 17.4193 67.0255 17.0719C67.3412 16.7244 67.7262 16.4468 68.1555 16.2568C68.5849 16.0669 69.0492 15.9688 69.5187 15.9688C69.9883 15.9688 70.4526 16.0669 70.882 16.2568C71.3113 16.4468 71.6963 16.7244 72.012 17.0719C72.3278 17.4193 72.5675 17.8289 72.7157 18.2744C72.864 18.7199 72.9174 19.1915 72.8727 19.6589C72.9183 20.1267 72.8654 20.599 72.7176 21.0452C72.5698 21.4914 72.3302 21.9018 72.0144 22.2499C71.6985 22.598 71.3133 22.8762 70.8835 23.0666C70.4537 23.257 69.9888 23.3553 69.5187 23.3553C69.0487 23.3553 68.5838 23.257 68.154 23.0666C67.7242 22.8762 67.339 22.598 67.0231 22.2499C66.7072 21.9018 66.4677 21.4914 66.3199 21.0452C66.1721 20.599 66.1192 20.1267 66.1648 19.6589ZM71.429 19.6589C71.429 18.1172 70.7365 17.2157 69.5211 17.2157C68.301 17.2157 67.6147 18.1173 67.6147 19.6589C67.6147 21.2129 68.3011 22.1075 69.5211 22.1075C70.7365 22.1074 71.429 21.2067 71.429 19.6589Z" fill="white"/>
<path d="M81.7895 23.2136H80.3335L78.8636 17.9756H78.7525L77.2888 23.2136H75.8466L73.8862 16.1016H75.3099L76.5839 21.5285H76.6888L78.151 16.1016H79.4975L80.9597 21.5285H81.0708L82.3386 16.1016H83.7422L81.7895 23.2136Z" fill="white"/>
<path d="M85.3911 16.1013H86.7423V17.2311H86.8471C87.0251 16.8253 87.3252 16.4852 87.7056 16.258C88.086 16.0309 88.5279 15.9281 88.9695 15.964C89.3155 15.938 89.663 15.9902 89.9862 16.1167C90.3093 16.2432 90.5998 16.4408 90.8363 16.6948C91.0727 16.9489 91.2489 17.2529 91.3519 17.5842C91.4549 17.9156 91.482 18.266 91.4312 18.6092V23.2133H90.0276V18.9617C90.0276 17.8188 89.5309 17.2504 88.4929 17.2504C88.2579 17.2395 88.0234 17.2795 87.8053 17.3676C87.5873 17.4558 87.3909 17.5901 87.2296 17.7613C87.0683 17.9325 86.9459 18.1365 86.8709 18.3594C86.7958 18.5823 86.7698 18.8188 86.7947 19.0527V23.2133H85.3911L85.3911 16.1013Z" fill="white"/>
<path d="M93.6675 13.3281H95.0711V23.2165H93.6675V13.3281Z" fill="white"/>
<path d="M97.0222 19.659C96.9775 19.1916 97.031 18.72 97.1792 18.2745C97.3275 17.829 97.5672 17.4193 97.883 17.0719C98.1989 16.7244 98.5838 16.4468 99.0132 16.2568C99.4426 16.0669 99.907 15.9688 100.377 15.9688C100.846 15.9688 101.31 16.0669 101.74 16.2568C102.169 16.4468 102.554 16.7244 102.87 17.0719C103.186 17.4193 103.426 17.829 103.574 18.2745C103.722 18.72 103.776 19.1916 103.731 19.659C103.776 20.1269 103.723 20.5991 103.576 21.0453C103.428 21.4916 103.188 21.9019 102.872 22.25C102.556 22.5981 102.171 22.8763 101.741 23.0667C101.311 23.2571 100.847 23.3554 100.377 23.3554C99.9064 23.3554 99.4415 23.2571 99.0117 23.0667C98.5819 22.8763 98.1967 22.5981 97.8808 22.25C97.5649 21.9019 97.3253 21.4916 97.1774 21.0453C97.0296 20.5991 96.9767 20.1269 97.0222 19.659ZM102.286 19.659C102.286 18.1174 101.594 17.2158 100.378 17.2158C99.1584 17.2158 98.4721 18.1174 98.4721 19.659C98.4721 21.213 99.1585 22.1076 100.378 22.1076C101.594 22.1076 102.286 21.2068 102.286 19.659Z" fill="white"/>
<path d="M105.208 21.2067C105.208 19.9265 106.162 19.1885 107.854 19.0836L109.78 18.9726V18.3587C109.78 17.6075 109.284 17.1834 108.324 17.1834C107.541 17.1834 106.998 17.471 106.842 17.9739H105.483C105.626 16.7523 106.776 15.9688 108.389 15.9688C110.172 15.9688 111.178 16.8564 111.178 18.3587V23.218H109.826V22.2186H109.715C109.49 22.5771 109.173 22.8694 108.798 23.0655C108.423 23.2617 108.002 23.3548 107.579 23.3352C107.281 23.3663 106.979 23.3344 106.693 23.2417C106.408 23.149 106.145 22.9975 105.922 22.797C105.698 22.5964 105.519 22.3513 105.397 22.0774C105.274 21.8035 105.21 21.5069 105.208 21.2067ZM109.78 20.599V20.0044L108.043 20.1155C107.064 20.181 106.62 20.5142 106.62 21.1412C106.62 21.7813 107.175 22.1538 107.939 22.1538C108.162 22.1764 108.388 22.1538 108.603 22.0873C108.818 22.0209 109.017 21.9119 109.189 21.7668C109.361 21.6217 109.502 21.4436 109.603 21.243C109.705 21.0424 109.765 20.8234 109.78 20.599Z" fill="white"/>
<path d="M113.022 19.6574C113.022 17.4101 114.178 15.9865 115.975 15.9865C116.419 15.966 116.86 16.0725 117.246 16.2934C117.633 16.5144 117.948 16.8407 118.156 17.2342H118.26V13.3281H119.664V23.2165H118.319V22.0928H118.208C117.984 22.4837 117.658 22.806 117.264 23.0247C116.871 23.2434 116.425 23.3503 115.975 23.3337C114.165 23.3338 113.022 21.9101 113.022 19.6574ZM114.472 19.6574C114.472 21.1659 115.183 22.0736 116.373 22.0736C117.556 22.0736 118.287 21.1528 118.287 19.6636C118.287 18.1813 117.548 17.2474 116.373 17.2474C115.191 17.2474 114.472 18.1613 114.472 19.6574Z" fill="white"/>
<path d="M125.471 19.6589C125.426 19.1915 125.48 18.7199 125.628 18.2744C125.776 17.8289 126.016 17.4193 126.332 17.0719C126.647 16.7244 127.032 16.4468 127.462 16.2568C127.891 16.0669 128.355 15.9688 128.825 15.9688C129.294 15.9688 129.759 16.0669 130.188 16.2568C130.617 16.4468 131.002 16.7244 131.318 17.0719C131.634 17.4193 131.874 17.8289 132.022 18.2744C132.17 18.7199 132.224 19.1915 132.179 19.6589C132.224 20.1267 132.172 20.599 132.024 21.0452C131.876 21.4914 131.636 21.9018 131.321 22.2499C131.005 22.598 130.619 22.8762 130.19 23.0666C129.76 23.257 129.295 23.3553 128.825 23.3553C128.355 23.3553 127.89 23.257 127.46 23.0666C127.03 22.8762 126.645 22.598 126.329 22.2499C126.013 21.9018 125.774 21.4914 125.626 21.0452C125.478 20.599 125.425 20.1267 125.471 19.6589ZM130.735 19.6589C130.735 18.1172 130.043 17.2157 128.827 17.2157C127.607 17.2157 126.921 18.1173 126.921 19.6589C126.921 21.2129 127.607 22.1075 128.827 22.1075C130.043 22.1074 130.735 21.2067 130.735 19.6589Z" fill="white"/>
<path d="M134.062 16.1013H135.413V17.2311H135.518C135.696 16.8253 135.996 16.4852 136.377 16.258C136.757 16.0309 137.199 15.9281 137.64 15.964C137.986 15.938 138.334 15.9902 138.657 16.1167C138.98 16.2432 139.271 16.4408 139.507 16.6948C139.744 16.9489 139.92 17.2529 140.023 17.5842C140.126 17.9156 140.153 18.266 140.102 18.6092V23.2133H138.698V18.9617C138.698 17.8188 138.202 17.2504 137.164 17.2504C136.929 17.2395 136.694 17.2795 136.476 17.3676C136.258 17.4558 136.062 17.5901 135.9 17.7613C135.739 17.9325 135.617 18.1365 135.542 18.3594C135.467 18.5823 135.441 18.8188 135.466 19.0527V23.2133H134.062V16.1013Z" fill="white"/>
<path d="M148.033 14.332V16.1351H149.574V17.3174H148.033V20.9744C148.033 21.7194 148.34 22.0456 149.039 22.0456C149.218 22.045 149.396 22.0342 149.574 22.0132V23.1823C149.322 23.2274 149.067 23.2514 148.811 23.2541C147.25 23.2541 146.628 22.705 146.628 21.3338V17.3173H145.499V16.135H146.628V14.332H148.033Z" fill="white"/>
<path d="M151.491 13.3281H152.882V17.2474H152.994C153.18 16.8378 153.488 16.4957 153.876 16.2677C154.265 16.0397 154.713 15.937 155.162 15.9734C155.506 15.9546 155.85 16.0121 156.17 16.1417C156.489 16.2713 156.776 16.4697 157.01 16.723C157.244 16.9762 157.419 17.278 157.523 17.6067C157.627 17.9354 157.657 18.2831 157.611 18.6247V23.2165H156.206V18.971C156.206 17.835 155.677 17.2597 154.686 17.2597C154.444 17.2399 154.202 17.2731 153.975 17.3569C153.748 17.4407 153.541 17.5731 153.371 17.7448C153.2 17.9166 153.069 18.1235 152.987 18.3511C152.905 18.5788 152.873 18.8217 152.895 19.0628V23.2165H151.491L151.491 13.3281Z" fill="white"/>
<path d="M165.796 21.2979C165.605 21.9479 165.192 22.5101 164.629 22.8863C164.065 23.2624 163.388 23.4285 162.714 23.3554C162.246 23.3678 161.78 23.2781 161.349 23.0924C160.919 22.9068 160.534 22.6297 160.222 22.2805C159.909 21.9312 159.676 21.5181 159.539 21.0698C159.402 20.6215 159.365 20.1488 159.429 19.6845C159.366 19.2188 159.405 18.7451 159.541 18.2954C159.678 17.8458 159.91 17.4308 160.221 17.0785C160.531 16.7261 160.914 16.4447 161.344 16.2533C161.773 16.0619 162.238 15.9649 162.708 15.9689C164.687 15.9689 165.881 17.3209 165.881 19.5542V20.0439H160.859V20.1226C160.837 20.3836 160.869 20.6463 160.955 20.8938C161.04 21.1414 161.177 21.3684 161.355 21.5602C161.533 21.7521 161.75 21.9045 161.99 22.0078C162.231 22.1111 162.491 22.1629 162.753 22.16C163.088 22.2003 163.429 22.1399 163.73 21.9863C164.031 21.8328 164.28 21.5931 164.445 21.2978L165.796 21.2979ZM160.859 19.0059H164.451C164.468 18.7672 164.436 18.5274 164.356 18.302C164.275 18.0766 164.148 17.8705 163.983 17.697C163.819 17.5235 163.619 17.3864 163.398 17.2945C163.177 17.2026 162.939 17.158 162.7 17.1635C162.457 17.1604 162.216 17.206 161.992 17.2975C161.767 17.389 161.563 17.5246 161.391 17.6963C161.219 17.868 161.084 18.0724 160.992 18.2973C160.901 18.5222 160.855 18.7631 160.859 19.0059Z" fill="white"/>
</svg>
