<svg width="16" height="16" viewBox="0 0 16 16" fill="none" xmlns="http://www.w3.org/2000/svg">
<path d="M12.175 8.99816H1C0.716667 8.99816 0.479167 8.90232 0.2875 8.71066C0.0958333 8.51899 0 8.28149 0 7.99816C0 7.71482 0.0958333 7.47732 0.2875 7.28566C0.479167 7.09399 0.716667 6.99816 1 6.99816H12.175L7.275 2.09816C7.075 1.89816 6.97917 1.66482 6.9875 1.39816C6.99583 1.13149 7.1 0.898156 7.3 0.698156C7.5 0.514823 7.73333 0.41899 8 0.410656C8.26667 0.402323 8.5 0.498156 8.7 0.698156L15.3 7.29816C15.4 7.39816 15.4708 7.50649 15.5125 7.62316C15.5542 7.73982 15.575 7.86482 15.575 7.99816C15.575 8.13149 15.5542 8.25649 15.5125 8.37316C15.4708 8.48982 15.4 8.59816 15.3 8.69816L8.7 15.2982C8.51667 15.4815 8.2875 15.5732 8.0125 15.5732C7.7375 15.5732 7.5 15.4815 7.3 15.2982C7.1 15.0982 7 14.8607 7 14.5857C7 14.3107 7.1 14.0732 7.3 13.8732L12.175 8.99816Z" fill="white"/>
</svg>
