<svg width="33" height="32" viewBox="0 0 33 32" fill="none" xmlns="http://www.w3.org/2000/svg">
<mask id="mask0_5570_3009" style="mask-type:alpha" maskUnits="userSpaceOnUse" x="0" y="0" width="33" height="32">
<rect x="0.333496" width="32" height="32" fill="white"/>
</mask>
<g mask="url(#mask0_5570_3009)">
<path d="M32.3335 16C32.3335 24.1875 26.146 30.9375 18.271 31.9375V20.9375H22.5835L23.4585 16H18.271V14.3125C18.271 11.6875 19.271 10.6875 21.896 10.6875C22.7085 10.6875 23.3335 10.75 23.7085 10.75V6.375C23.021 6.125 21.271 5.9375 20.271 5.9375C14.896 5.9375 12.4585 8.5 12.4585 13.9375V16H9.146V20.9375H12.4585V31.5625C5.4585 29.8125 0.333496 23.5 0.333496 16C0.333496 7.1875 7.4585 0 16.3335 0C25.146 0 32.3335 7.1875 32.3335 16Z" fill="white"/>
</g>
</svg>
