<svg width="33" height="32" viewBox="0 0 33 32" fill="none" xmlns="http://www.w3.org/2000/svg">
<mask id="mask0_5570_3011" style="mask-type:alpha" maskUnits="userSpaceOnUse" x="0" y="0" width="33" height="32">
<rect x="0.333496" width="32" height="32" fill="white"/>
</mask>
<g mask="url(#mask0_5570_3011)">
<path d="M16.3335 8.8125C20.271 8.8125 23.521 12.0625 23.521 16C23.521 20 20.271 23.1875 16.3335 23.1875C12.3335 23.1875 9.146 20 9.146 16C9.146 12.0625 12.3335 8.8125 16.3335 8.8125ZM16.3335 20.6875C18.896 20.6875 20.9585 18.625 20.9585 16C20.9585 13.4375 18.896 11.375 16.3335 11.375C13.7085 11.375 11.646 13.4375 11.646 16C11.646 18.625 13.771 20.6875 16.3335 20.6875ZM25.4585 8.5625C25.4585 7.625 24.7085 6.875 23.771 6.875C22.8335 6.875 22.0835 7.625 22.0835 8.5625C22.0835 9.5 22.8335 10.25 23.771 10.25C24.7085 10.25 25.4585 9.5 25.4585 8.5625ZM30.2085 10.25C30.3335 12.5625 30.3335 19.5 30.2085 21.8125C30.0835 24.0625 29.5835 26 27.9585 27.6875C26.3335 29.3125 24.3335 29.8125 22.0835 29.9375C19.771 30.0625 12.8335 30.0625 10.521 29.9375C8.271 29.8125 6.3335 29.3125 4.646 27.6875C3.021 26 2.521 24.0625 2.396 21.8125C2.271 19.5 2.271 12.5625 2.396 10.25C2.521 8 3.021 6 4.646 4.375C6.3335 2.75 8.271 2.25 10.521 2.125C12.8335 2 19.771 2 22.0835 2.125C24.3335 2.25 26.3335 2.75 27.9585 4.375C29.5835 6 30.0835 8 30.2085 10.25ZM27.2085 24.25C27.9585 22.4375 27.771 18.0625 27.771 16C27.771 14 27.9585 9.625 27.2085 7.75C26.7085 6.5625 25.771 5.5625 24.5835 5.125C22.7085 4.375 18.3335 4.5625 16.3335 4.5625C14.271 4.5625 9.896 4.375 8.0835 5.125C6.8335 5.625 5.896 6.5625 5.396 7.75C4.646 9.625 4.8335 14 4.8335 16C4.8335 18.0625 4.646 22.4375 5.396 24.25C5.896 25.5 6.8335 26.4375 8.0835 26.9375C9.896 27.6875 14.271 27.5 16.3335 27.5C18.3335 27.5 22.7085 27.6875 24.5835 26.9375C25.771 26.4375 26.771 25.5 27.2085 24.25Z" fill="white"/>
</g>
</svg>
