<svg width="33" height="32" viewBox="0 0 33 32" fill="none" xmlns="http://www.w3.org/2000/svg">
<mask id="mask0_5570_3010" style="mask-type:alpha" maskUnits="userSpaceOnUse" x="0" y="0" width="33" height="32">
<rect x="0.333496" width="32" height="32" fill="white"/>
</mask>
<g mask="url(#mask0_5570_3010)">
<path d="M28.3335 2C29.396 2 30.3335 2.9375 30.3335 4.0625V28C30.3335 29.125 29.396 30 28.3335 30H4.271C3.2085 30 2.3335 29.125 2.3335 28V4.0625C2.3335 2.9375 3.2085 2 4.271 2H28.3335ZM10.771 26V12.6875H6.646V26H10.771ZM8.7085 10.8125C10.021 10.8125 11.0835 9.75 11.0835 8.4375C11.0835 7.125 10.021 6 8.7085 6C7.3335 6 6.271 7.125 6.271 8.4375C6.271 9.75 7.3335 10.8125 8.7085 10.8125ZM26.3335 26V18.6875C26.3335 15.125 25.521 12.3125 21.3335 12.3125C19.3335 12.3125 17.9585 13.4375 17.396 14.5H17.3335V12.6875H13.396V26H17.521V19.4375C17.521 17.6875 17.8335 16 20.021 16C22.146 16 22.146 18 22.146 19.5V26H26.3335Z" fill="white"/>
</g>
</svg>
