<svg width="190" height="62" viewBox="0 0 190 62" fill="none" xmlns="http://www.w3.org/2000/svg">
<path d="M182.333 61.9412H7.3335C3.4835 61.9412 0.333496 58.457 0.333496 54.1985V7.74265C0.333496 3.48419 3.4835 0 7.3335 0H182.333C186.183 0 189.333 3.48419 189.333 7.74265V54.1985C189.333 58.457 186.183 61.9412 182.333 61.9412Z" fill="black"/>
<path d="M182.333 1.23882C183.893 1.23882 185.389 1.92405 186.491 3.14375C187.594 4.36345 188.213 6.01773 188.213 7.74265V54.1985C188.213 55.9235 187.594 57.5777 186.491 58.7974C185.389 60.0171 183.893 60.7024 182.333 60.7024H7.3335C5.77402 60.7024 4.27842 60.0171 3.17571 58.7974C2.07299 57.5777 1.4535 55.9235 1.4535 54.1985V7.74265C1.4535 6.01773 2.07299 4.36345 3.17571 3.14375C4.27842 1.92405 5.77402 1.23882 7.3335 1.23882H182.333ZM182.333 0H7.3335C3.4835 0 0.333496 3.48419 0.333496 7.74265V54.1985C0.333496 58.457 3.4835 61.9412 7.3335 61.9412H182.333C186.183 61.9412 189.333 58.457 189.333 54.1985V7.74265C189.333 3.48419 186.183 0 182.333 0Z" fill="#A6A6A6"/>
<path d="M66.7213 15.9412C66.7213 17.1188 66.3713 18.058 65.6713 18.7449C64.8873 19.5719 63.8653 19.9925 62.5913 19.9925C61.3733 19.9925 60.3373 19.5719 59.4973 18.7308C58.6573 17.8898 58.2373 16.8384 58.2373 15.6048C58.2373 14.3712 58.6573 13.3199 59.4973 12.4788C60.3373 11.6377 61.3733 11.2031 62.5913 11.2031C63.2073 11.2031 63.7953 11.3153 64.3413 11.5255C64.8873 11.7498 65.3353 12.0582 65.6853 12.4507L64.9153 13.2217C64.6633 12.9133 64.3273 12.661 63.9073 12.4928C63.4923 12.312 63.0438 12.2212 62.5913 12.2264C61.6813 12.2264 60.8973 12.5489 60.2673 13.1797C59.6373 13.8245 59.3293 14.6235 59.3293 15.5908C59.3293 16.558 59.6373 17.3571 60.2673 18.0019C60.8973 18.6327 61.6673 18.9551 62.5913 18.9551C63.4313 18.9551 64.1173 18.7168 64.6773 18.2542C65.2373 17.7916 65.5593 17.1328 65.6433 16.3197H62.5913V15.3104H66.6653C66.6933 15.5347 66.7213 15.745 66.7213 15.9412ZM73.1753 11.3994V12.4367H69.3533V15.1002H72.7973V16.1095H69.3533V18.7729H73.1753V19.8102H68.2753V11.3994H73.1753ZM77.7253 12.4367V19.8102H76.6473V12.4367H74.2953V11.3994H80.0633V12.4367H77.7253ZM85.3273 19.8102H84.2493V11.3994H85.3273V19.8102ZM90.1153 12.4367V19.8102H89.0373V12.4367H86.6853V11.3994H92.4533V12.4367H90.1153ZM104.619 15.6048C104.619 16.8524 104.199 17.8898 103.373 18.7308C102.533 19.5719 101.511 19.9925 100.293 19.9925C99.0753 19.9925 98.0533 19.5719 97.2133 18.7308C96.3873 17.8898 95.9673 16.8524 95.9673 15.6048C95.9673 14.3572 96.3873 13.3199 97.2133 12.4788C98.0393 11.6377 99.0613 11.2031 100.293 11.2031C101.511 11.2031 102.533 11.6237 103.373 12.4788C104.213 13.3339 104.619 14.3712 104.619 15.6048ZM97.0873 15.6048C97.0873 16.5721 97.3953 17.3851 97.9973 18.0159C98.6133 18.6467 99.3833 18.9691 100.293 18.9691C101.203 18.9691 101.973 18.6467 102.575 18.0159C103.191 17.3851 103.499 16.5861 103.499 15.6048C103.499 14.6235 103.191 13.8245 102.575 13.1937C101.959 12.5629 101.203 12.2405 100.293 12.2405C99.3833 12.2405 98.6133 12.5629 97.9973 13.1937C97.3953 13.8245 97.0873 14.6376 97.0873 15.6048ZM107.209 19.8102H106.131V11.3994H107.447L111.535 17.9458H111.577L111.535 16.3197V11.3994H112.613V19.8102H111.493L107.223 12.9554H107.181L107.223 14.5815V19.8102H107.209Z" fill="white"/>
<path d="M95.7295 32.0729C92.4395 32.0729 89.7516 34.5821 89.7516 38.0306C89.7516 41.465 92.4395 43.9883 95.7295 43.9883C99.0195 43.9883 101.708 41.465 101.708 38.0306C101.708 34.5821 99.0195 32.0729 95.7295 32.0729ZM95.7295 41.6472C93.9235 41.6472 92.3695 40.1613 92.3695 38.0306C92.3695 35.8858 93.9235 34.4139 95.7295 34.4139C97.5355 34.4139 99.0896 35.8858 99.0896 38.0306C99.0896 40.1613 97.5215 41.6472 95.7295 41.6472ZM82.6815 32.0729C79.3915 32.0729 76.7036 34.5821 76.7036 38.0306C76.7036 41.465 79.3915 43.9883 82.6815 43.9883C85.9715 43.9883 88.6595 41.465 88.6595 38.0306C88.6595 34.5821 85.9715 32.0729 82.6815 32.0729ZM82.6815 41.6472C80.8755 41.6472 79.3215 40.1613 79.3215 38.0306C79.3215 35.8858 80.8755 34.4139 82.6815 34.4139C84.4875 34.4139 86.0416 35.8858 86.0416 38.0306C86.0416 40.1613 84.4875 41.6472 82.6815 41.6472ZM67.1696 33.9092V36.4325H73.2176C73.0356 37.8483 72.5596 38.8997 71.8456 39.6146C70.9636 40.4978 69.5915 41.465 67.1835 41.465C63.4595 41.465 60.5475 38.4651 60.5475 34.7363C60.5475 31.0075 63.4595 28.0076 67.1835 28.0076C69.1855 28.0076 70.6555 28.7926 71.7335 29.816L73.5115 28.0357C71.9995 26.5918 69.9976 25.4844 67.1696 25.4844C62.0736 25.4844 57.7896 29.6337 57.7896 34.7503C57.7896 39.8529 62.0736 44.0163 67.1696 44.0163C69.9276 44.0163 71.9995 43.1191 73.6235 41.4229C75.2895 39.7548 75.8075 37.3998 75.8075 35.5073C75.8075 34.9186 75.7656 34.3718 75.6676 33.9233H67.1696V33.9092ZM130.604 35.8718C130.114 34.5401 128.602 32.0729 125.508 32.0729C122.442 32.0729 119.894 34.484 119.894 38.0306C119.894 41.3669 122.414 43.9883 125.802 43.9883C128.532 43.9883 130.114 42.3201 130.758 41.3529L128.728 39.9931C128.056 40.9884 127.132 41.6472 125.802 41.6472C124.472 41.6472 123.52 41.0445 122.918 39.8389L130.884 36.5446L130.604 35.8718ZM122.484 37.8623C122.414 35.5634 124.262 34.3859 125.592 34.3859C126.628 34.3859 127.51 34.9045 127.804 35.6475L122.484 37.8623ZM116.016 43.6378H118.634V26.1152H116.016V43.6378ZM111.732 33.4046H111.634C111.046 32.7037 109.926 32.0729 108.498 32.0729C105.516 32.0729 102.786 34.6943 102.786 38.0586C102.786 41.3949 105.516 44.0023 108.498 44.0023C109.912 44.0023 111.046 43.3715 111.634 42.6425H111.718V43.4976C111.718 45.7826 110.5 47.0021 108.54 47.0021C106.944 47.0021 105.95 45.8527 105.544 44.8854L103.262 45.8386C103.92 47.4227 105.656 49.3572 108.54 49.3572C111.606 49.3572 114.196 47.5488 114.196 43.1472V32.4373H111.718V33.4046H111.732ZM108.722 41.6472C106.916 41.6472 105.404 40.1333 105.404 38.0586C105.404 35.9559 106.916 34.4279 108.722 34.4279C110.5 34.4279 111.9 35.9699 111.9 38.0586C111.914 40.1333 110.514 41.6472 108.722 41.6472ZM142.868 26.1152H136.61V43.6378H139.228V36.9932H142.882C145.78 36.9932 148.622 34.8905 148.622 31.5542C148.608 28.2179 145.752 26.1152 142.868 26.1152ZM142.924 34.5541H139.214V28.5403H142.924C144.884 28.5403 145.99 30.1664 145.99 31.5402C145.99 32.914 144.884 34.5541 142.924 34.5541ZM159.08 32.0448C157.19 32.0448 155.23 32.8859 154.418 34.7223L156.742 35.6895C157.232 34.7223 158.156 34.3999 159.122 34.3999C160.466 34.3999 161.852 35.2129 161.866 36.6568V36.839C161.39 36.5727 160.382 36.1662 159.136 36.1662C156.63 36.1662 154.096 37.5399 154.096 40.1052C154.096 42.4463 156.14 43.9602 158.436 43.9602C160.186 43.9602 161.166 43.1752 161.768 42.25H161.852V43.5957H164.372V36.8811C164.386 33.7831 162.062 32.0448 159.08 32.0448ZM158.758 41.6472C157.904 41.6472 156.714 41.2127 156.714 40.1613C156.714 38.8156 158.198 38.2969 159.486 38.2969C160.634 38.2969 161.18 38.5492 161.866 38.8857C161.768 39.6444 161.4 40.3422 160.829 40.8499C160.257 41.3577 159.521 41.6409 158.758 41.6472ZM173.57 32.4233L170.574 40.0211H170.49L167.382 32.4233H164.568L169.23 43.049L166.57 48.9507H169.3L176.482 32.4233H173.57ZM150.05 43.6378H152.668V26.1152H150.05V43.6378Z" fill="white"/>
<path d="M29.3416 28.8125L14.4316 44.6529V44.667C14.593 45.267 14.8906 45.8216 15.3013 46.2875C15.712 46.7534 16.2247 47.1179 16.7993 47.3527C17.374 47.5875 17.995 47.6861 18.614 47.6409C19.2329 47.5957 19.8331 47.4079 20.3676 47.0921L20.4096 47.064L37.1816 37.3776L29.3416 28.8125Z" fill="#EA4335"/>
<path d="M44.4194 26.1218L44.4054 26.1078L37.1674 21.9023L29.0054 29.1777L37.1954 37.3783L44.4054 33.2149C45.0431 32.8693 45.5759 32.3578 45.9477 31.7344C46.3195 31.1109 46.5165 30.3986 46.5179 29.6725C46.5193 28.9464 46.3252 28.2334 45.9559 27.6085C45.5865 26.9836 45.0557 26.47 44.4194 26.1218Z" fill="#FBBC04"/>
<path d="M14.4315 14.5977C14.3475 14.9341 14.2915 15.2705 14.2915 15.635V43.6291C14.2915 43.9936 14.3335 44.33 14.4315 44.6665L29.8455 29.2325L14.4315 14.5977Z" fill="#4285F4"/>
<path d="M29.4536 29.6163L37.1676 21.8924L20.4096 12.1638C19.8739 11.8431 19.2714 11.6508 18.6491 11.6022C18.0268 11.5535 17.4017 11.6496 16.8227 11.8832C16.2438 12.1167 15.7266 12.4812 15.3118 12.9482C14.897 13.4152 14.5957 13.9719 14.4316 14.5749L29.4536 29.6163Z" fill="#34A853"/>
</svg>
