<svg width="97" height="64" viewBox="0 0 97 64" fill="none" xmlns="http://www.w3.org/2000/svg">
<path d="M72.7701 63.2866C68.6936 63.2866 65.0758 62.2166 61.9166 60.0764C58.7573 57.9363 56.2605 55.0319 54.4261 51.3631C52.5917 47.6943 51.6745 43.6178 51.6745 39.1338C51.6745 31.7962 54.0694 24.6115 58.8592 17.5796C63.751 10.4459 70.6299 4.586 79.4962 0L96.6172 9.17199C90.8083 12.0255 85.8656 15.3376 81.7892 19.1083C77.8146 22.879 75.114 27.3121 73.6873 32.4077C78.4771 32.8153 82.3497 34.293 85.3051 36.8408C88.3624 39.2866 89.8911 42.7006 89.8911 47.0828C89.8911 51.465 88.3115 55.2866 85.1522 58.5478C82.0949 61.707 77.9675 63.2866 72.7701 63.2866ZM21.7127 63.2866C17.6363 63.2866 14.0185 62.2166 10.8592 60.0764C7.69999 57.9363 5.20318 55.0319 3.36878 51.3631C1.53439 47.6943 0.617188 43.6178 0.617188 39.1338C0.617188 31.7962 3.01209 24.6115 7.8019 17.5796C12.6936 10.4459 19.5726 4.586 28.4388 0L45.5599 9.17199C39.751 12.0255 34.8083 15.3376 30.7318 19.1083C26.7573 22.879 24.0567 27.3121 22.6299 32.4077C27.4197 32.8153 31.2924 34.293 34.2478 36.8408C37.3051 39.2866 38.8338 42.7006 38.8338 47.0828C38.8338 51.465 37.2541 55.2866 34.0949 58.5478C31.0376 61.707 26.9102 63.2866 21.7127 63.2866Z" fill="#FF7438"/>
</svg>
