<svg width="33" height="32" viewBox="0 0 33 32" fill="none" xmlns="http://www.w3.org/2000/svg">
<mask id="mask0_5570_3014" style="mask-type:alpha" maskUnits="userSpaceOnUse" x="0" y="0" width="33" height="32">
<rect x="0.333496" width="32" height="32" fill="white"/>
</mask>
<g mask="url(#mask0_5570_3014)">
<path d="M28.8335 18.75C29.771 19.9375 30.3335 21.4375 30.271 23C30.271 26.875 27.146 30 23.271 30C21.7085 30 20.2085 29.5 19.021 28.5625C18.146 28.75 17.2085 28.875 16.271 28.875C9.2085 28.875 3.4585 23.125 3.4585 16C3.4585 15.125 3.5835 14.1875 3.771 13.3125C2.8335 12.125 2.3335 10.625 2.3335 9C2.3335 5.1875 5.4585 2 9.3335 2C10.896 2 12.396 2.5625 13.5835 3.5C14.4585 3.3125 15.396 3.1875 16.3335 3.1875C23.396 3.1875 29.146 8.9375 29.146 16C29.146 16.9375 29.021 17.875 28.8335 18.75ZM16.7085 24.5C20.146 24.5 23.7085 22.75 23.7085 19.0625C23.7085 15.875 20.5835 14.8125 18.021 14.25C15.021 13.5 13.7085 13.375 13.7085 12.1875C13.7085 11.1875 14.7085 10.75 16.3335 10.75C19.2085 10.75 19.271 12.875 21.021 12.875C22.2085 12.875 22.896 11.9375 22.896 10.875C22.896 8.75 19.396 7.375 15.9585 7.375C12.8335 7.375 9.146 8.75 9.146 12.5C9.146 16.5625 12.646 16.9375 16.521 17.9375C18.146 18.3125 19.146 18.5 19.146 19.6875C19.146 20.625 18.0835 21.3125 16.521 21.3125C13.146 21.3125 12.9585 18.5 11.021 18.5C9.7085 18.5 9.146 19.4375 9.146 20.4375C9.146 22.6875 12.5835 24.5 16.7085 24.5Z" fill="white"/>
</g>
</svg>
