<svg width="33" height="32" viewBox="0 0 33 32" fill="none" xmlns="http://www.w3.org/2000/svg">
<mask id="mask0_5570_3013" style="mask-type:alpha" maskUnits="userSpaceOnUse" x="0" y="0" width="33" height="32">
<rect x="0.333496" width="32" height="32" fill="white"/>
</mask>
<g mask="url(#mask0_5570_3013)">
<path d="M31.6315 7.56856C32.3335 10.0256 32.3335 15.2907 32.3335 15.2907C32.3335 15.2907 32.3335 20.4973 31.6315 23.0128C31.2805 24.4168 30.169 25.4698 28.8234 25.8208C26.3079 26.4644 16.3627 26.4644 16.3627 26.4644C16.3627 26.4644 6.35909 26.4644 3.84355 25.8208C2.49803 25.4698 1.38651 24.4168 1.03551 23.0128C0.333496 20.4973 0.333496 15.2907 0.333496 15.2907C0.333496 15.2907 0.333496 10.0256 1.03551 7.56856C1.38651 6.16453 2.49803 5.05302 3.84355 4.70201C6.35909 4 16.3627 4 16.3627 4C16.3627 4 26.3079 4 28.8234 4.70201C30.169 5.05302 31.2805 6.16453 31.6315 7.56856ZM13.0867 20.0293L21.3938 15.2907L13.0867 10.5521V20.0293Z" fill="white"/>
</g>
</svg>
